# Blender 3.6.17
# www.blender.org
mtllib casav4.mtl
o links_house
v 0.000000 -0.668333 0.000000
v -1.903995 -0.519352 3.979351
v 1.903995 -0.519352 3.979351
v 0.000000 -0.828855 2.987026
v -2.747757 0.051783 5.742815
v 0.000000 -0.424347 6.300001
v 2.747757 0.051783 5.742815
v 4.503243 0.317962 4.776621
v -2.747757 1.363718 5.742815
v -4.503243 1.496807 4.776621
v 0.000000 1.125653 6.300001
v -2.747757 2.675653 5.742815
v 2.747757 1.363718 5.742815
v 4.503243 1.496807 4.776621
v 4.503243 2.675653 4.776621
v -4.503243 3.854498 4.776621
v -2.747757 3.987587 5.742815
v 0.000000 4.225653 6.300001
v 0.000000 2.675653 6.300001
v 2.747757 2.675653 5.742815
v -2.747757 5.299522 5.742814
v 2.747757 3.987587 5.742815
v -4.503243 5.033344 4.776621
v -2.747757 6.611457 5.742814
v 0.000000 5.775653 6.300001
v 2.747757 5.299522 5.742814
v 4.503243 6.212189 4.776621
v 0.000000 10.429380 -0.000001
v 2.747757 6.611457 5.742814
v 0.000000 7.325653 6.300001
v 3.637056 -0.242689 3.857851
v 3.807991 -0.519352 1.989676
v 3.807991 -0.519353 -1.989675
v 5.495514 0.051783 2.871407
v 2.987026 -0.828855 0.000000
v 5.495514 0.051783 -2.871407
v 5.495514 1.363717 -2.871407
v 6.300001 -0.424348 0.000000
v 5.495514 1.363718 2.871407
v 5.495514 2.675653 2.871407
v 6.300001 1.125652 -0.000000
v 5.495514 2.675652 -2.871407
v 4.503243 3.854498 4.776621
v 5.495514 3.987587 -2.871407
v 6.300001 2.675653 -0.000000
v 4.503243 3.854497 -4.776621
v 5.495514 3.987587 2.871407
v 5.495514 5.299522 2.871407
v 6.300001 4.225652 -0.000000
v 6.300001 5.775652 -0.000000
v 4.503243 5.033343 -4.776622
v 5.495514 6.611456 2.871407
v 4.503243 5.033344 4.776621
v 6.300001 7.325652 -0.000000
v 5.495514 5.299522 -2.871407
v 5.495514 6.611456 -2.871408
v -3.807991 -0.519353 -1.989675
v -3.807991 -0.519352 1.989676
v -2.987026 -0.828855 0.000000
v -3.637056 -0.242689 3.857851
v -6.300001 -0.424348 0.000000
v -5.495514 0.051783 -2.871407
v -5.495514 1.363717 -2.871407
v -6.300001 1.125652 -0.000000
v -4.503243 0.317962 4.776621
v -5.495514 0.051783 2.871407
v -4.503243 1.496807 -4.776621
v -4.503243 2.675652 -4.776621
v -5.495514 2.675652 -2.871407
v -6.300001 2.675653 -0.000000
v -5.495514 1.363718 2.871407
v -4.503243 2.675653 4.776621
v -5.495514 3.987587 -2.871407
v -6.300001 4.225652 -0.000000
v -5.495514 3.987587 2.871407
v -5.495514 2.675653 2.871407
v -4.503243 3.854497 -4.776621
v -5.495514 5.299522 2.871407
v -4.503243 5.033343 -4.776622
v -5.495514 6.611456 -2.871408
v -6.300001 5.775652 -0.000000
v -5.495514 5.299522 -2.871407
v -6.300001 7.325652 -0.000000
v -5.495514 6.611456 2.871407
v -4.503243 6.212189 4.776621
v 0.000000 -0.828855 -2.987026
v 1.903995 -0.519353 -3.979352
v -1.903995 -0.519353 -3.979352
v -3.637056 -0.242689 -3.857851
v 3.637056 -0.242689 -3.857851
v -2.747757 0.051782 -5.742815
v 4.503243 0.317961 -4.776621
v 2.747757 0.051782 -5.742815
v 2.747757 1.363717 -5.742815
v -2.747757 1.363717 -5.742815
v 0.000000 -0.424348 -6.300001
v -4.503243 0.317961 -4.776621
v 4.503243 1.496807 -4.776621
v 2.747757 2.675652 -5.742815
v 0.000000 1.125652 -6.300001
v 0.000000 2.675652 -6.300001
v 4.503243 2.675652 -4.776621
v 2.747757 3.987586 -5.742815
v -2.747757 2.675652 -5.742815
v -2.747757 3.987586 -5.742815
v 2.747757 5.299521 -5.742815
v 0.000000 4.225652 -6.300002
v 0.000000 5.775652 -6.300002
v 2.747757 6.611456 -5.742815
v 0.000000 7.325652 -6.300002
v -2.747757 5.299521 -5.742815
v -4.503243 6.212188 -4.776622
v 4.503243 6.212188 -4.776622
v -2.747757 6.611456 -5.742815
vn -0.0000 1.0000 -0.0000
vn 0.2517 0.9525 -0.1713
vn 0.1593 0.9830 -0.0909
vn -0.0069 0.9998 -0.0172
vn -0.1083 0.9815 -0.1579
vn -0.1800 0.9535 -0.2417
vn 0.3440 0.5599 -0.7538
vn 0.6350 0.4826 -0.6032
vn -0.0130 0.6537 -0.7566
vn -0.3418 0.5810 -0.7387
vn -0.6190 0.4843 -0.6183
vn 0.3444 -0.0000 -0.9388
vn 0.7152 -0.0000 -0.6989
vn -0.0000 -0.0000 -1.0000
vn -0.3444 -0.0000 -0.9388
vn -0.7152 -0.0000 -0.6989
vn 0.3942 -0.4664 -0.7919
vn 0.6566 -0.4012 -0.6387
vn -0.0000 -0.5549 -0.8319
vn -0.3942 -0.4664 -0.7919
vn -0.6566 -0.4012 -0.6387
vn -0.0000 -1.0000 -0.0000
vn -0.0911 0.9833 -0.1572
vn -0.0226 0.9997 0.0081
vn -0.1554 0.9813 0.1140
vn -0.2517 0.9525 0.1713
vn -0.7423 0.5658 -0.3589
vn -0.7685 0.6397 0.0115
vn -0.7272 0.5870 0.3559
vn -0.6350 0.4826 0.6032
vn -0.9299 -0.0000 -0.3678
vn -1.0000 -0.0000 -0.0000
vn -0.9299 -0.0000 0.3678
vn -0.7152 -0.0000 0.6989
vn -0.7824 -0.4683 -0.4105
vn -0.8400 -0.5426 -0.0000
vn -0.7824 -0.4683 0.4105
vn -0.6566 -0.4012 0.6387
vn 0.1800 0.9535 0.2417
vn 0.0911 0.9833 0.1572
vn 0.0226 0.9997 -0.0081
vn 0.1554 0.9813 -0.1140
vn 0.7423 0.5658 0.3589
vn 0.6190 0.4843 0.6183
vn 0.7685 0.6397 -0.0115
vn 0.7272 0.5870 -0.3559
vn 0.9299 -0.0000 0.3678
vn 0.7152 -0.0000 0.6989
vn 1.0000 -0.0000 -0.0000
vn 0.9299 -0.0000 -0.3678
vn 0.7824 -0.4683 0.4105
vn 0.6566 -0.4012 0.6387
vn 0.8400 -0.5426 -0.0000
vn 0.7824 -0.4683 -0.4105
vn -0.1593 0.9830 0.0909
vn 0.0069 0.9998 0.0172
vn 0.1083 0.9815 0.1579
vn -0.3440 0.5599 0.7538
vn 0.0130 0.6537 0.7566
vn 0.3418 0.5810 0.7387
vn -0.3444 -0.0000 0.9388
vn -0.0000 -0.0000 1.0000
vn 0.3444 -0.0000 0.9388
vn -0.3942 -0.4664 0.7919
vn -0.0000 -0.5549 0.8319
vn 0.3942 -0.4664 0.7919
vt 0.546667 0.590698
vt 0.546667 0.542636
vt 0.453333 0.542636
vt 0.657778 0.257364
vt 0.657778 0.209302
vt 0.564444 0.209302
vt 0.324444 0.324031
vt 0.324444 0.275969
vt 0.231111 0.275969
vt 0.546667 0.124031
vt 0.546667 0.075969
vt 0.453333 0.075969
vt 0.786667 0.257364
vt 0.880000 0.257364
vt 0.786667 0.209302
vt 0.880000 0.209302
vt 0.564444 0.457364
vt 0.657778 0.457364
vt 0.564444 0.409302
vt 0.657778 0.409302
vt 0.675556 0.390698
vt 0.768889 0.390698
vt 0.675556 0.342636
vt 0.768889 0.342636
vt 0.008889 0.390698
vt 0.102222 0.390698
vt 0.008889 0.342636
vt 0.102222 0.342636
vt 0.342222 0.457364
vt 0.435556 0.457364
vt 0.342222 0.409302
vt 0.435556 0.409302
vt 0.786667 0.790698
vt 0.880000 0.790698
vt 0.786667 0.742636
vt 0.880000 0.742636
vt 0.008889 0.590698
vt 0.102222 0.590698
vt 0.008889 0.542636
vt 0.102222 0.542636
vt 0.008889 0.124031
vt 0.102222 0.124031
vt 0.008889 0.075969
vt 0.102222 0.075969
vt 0.564444 0.990698
vt 0.657778 0.990698
vt 0.564444 0.942636
vt 0.657778 0.942636
vt 0.564444 0.657364
vt 0.657778 0.657364
vt 0.564444 0.609302
vt 0.657778 0.609302
vt 0.675556 0.124031
vt 0.768889 0.124031
vt 0.675556 0.075969
vt 0.768889 0.075969
vt 0.675556 0.990698
vt 0.768889 0.990698
vt 0.675556 0.942636
vt 0.768889 0.942636
vt 0.564444 0.924031
vt 0.657778 0.924031
vt 0.564444 0.875969
vt 0.657778 0.875969
vt 0.453333 0.457364
vt 0.546667 0.457364
vt 0.453333 0.409302
vt 0.546667 0.409302
vt 0.453333 0.190698
vt 0.546667 0.190698
vt 0.453333 0.142636
vt 0.546667 0.142636
vt 0.453333 0.724031
vt 0.546667 0.724031
vt 0.453333 0.675969
vt 0.546667 0.675969
vt 0.342222 0.390698
vt 0.435556 0.390698
vt 0.342222 0.342636
vt 0.435556 0.342636
vt 0.897778 0.590698
vt 0.991111 0.590698
vt 0.897778 0.542636
vt 0.991111 0.542636
vt 0.675556 0.790698
vt 0.768889 0.790698
vt 0.675556 0.742636
vt 0.768889 0.742636
vt 0.897778 0.524031
vt 0.991111 0.524031
vt 0.897778 0.475969
vt 0.991111 0.475969
vt 0.008889 0.257364
vt 0.102222 0.257364
vt 0.008889 0.209302
vt 0.102222 0.209302
vt 0.342222 0.657364
vt 0.435556 0.657364
vt 0.342222 0.609302
vt 0.435556 0.609302
vt 0.675556 0.590698
vt 0.768889 0.590698
vt 0.675556 0.542636
vt 0.768889 0.542636
vt 0.231111 0.524031
vt 0.324444 0.524031
vt 0.231111 0.475969
vt 0.324444 0.475969
vt 0.453333 0.924031
vt 0.546667 0.924031
vt 0.453333 0.875969
vt 0.120000 0.057364
vt 0.213333 0.057364
vt 0.120000 0.009302
vt 0.008889 0.457364
vt 0.102222 0.457364
vt 0.008889 0.409302
vt 0.564444 0.057364
vt 0.657778 0.057364
vt 0.564444 0.009302
vt 0.324444 0.924031
vt 0.324444 0.875969
vt 0.231111 0.875969
vt 0.768889 0.524031
vt 0.768889 0.475969
vt 0.675556 0.475969
vt 0.880000 0.524031
vt 0.880000 0.475969
vt 0.786667 0.475969
vt 0.546667 0.257364
vt 0.546667 0.209302
vt 0.453333 0.209302
vt 0.342222 0.524031
vt 0.435556 0.524031
vt 0.342222 0.475969
vt 0.435556 0.475969
vt 0.231111 0.590698
vt 0.324444 0.590698
vt 0.231111 0.542636
vt 0.324444 0.542636
vt 0.786667 0.124031
vt 0.880000 0.124031
vt 0.786667 0.075969
vt 0.880000 0.075969
vt 0.675556 0.924031
vt 0.768889 0.924031
vt 0.675556 0.875969
vt 0.768889 0.875969
vt 0.120000 0.790698
vt 0.213333 0.790698
vt 0.120000 0.742636
vt 0.213333 0.742636
vt 0.342222 0.124031
vt 0.435556 0.124031
vt 0.342222 0.075969
vt 0.435556 0.075969
vt 0.342222 0.257364
vt 0.435556 0.257364
vt 0.342222 0.209302
vt 0.435556 0.209302
vt 0.675556 0.657364
vt 0.768889 0.657364
vt 0.675556 0.609302
vt 0.768889 0.609302
vt 0.231111 0.190698
vt 0.324444 0.190698
vt 0.231111 0.142636
vt 0.324444 0.142636
vt 0.342222 0.857364
vt 0.435556 0.857364
vt 0.342222 0.809302
vt 0.435556 0.809302
vt 0.342222 0.990698
vt 0.435556 0.990698
vt 0.342222 0.942636
vt 0.435556 0.942636
vt 0.231111 0.124031
vt 0.324444 0.124031
vt 0.231111 0.075969
vt 0.324444 0.075969
vt 0.786667 0.457364
vt 0.880000 0.457364
vt 0.786667 0.409302
vt 0.880000 0.409302
vt 0.675556 0.257364
vt 0.768889 0.257364
vt 0.675556 0.209302
vt 0.768889 0.209302
vt 0.564444 0.790698
vt 0.657778 0.790698
vt 0.564444 0.742636
vt 0.657778 0.742636
vt 0.453333 0.057364
vt 0.546667 0.057364
vt 0.453333 0.009302
vt 0.546667 0.009302
vt 0.008889 0.657364
vt 0.102222 0.657364
vt 0.008889 0.609302
vt 0.102222 0.609302
vt 0.564444 0.324031
vt 0.657778 0.324031
vt 0.564444 0.275969
vt 0.657778 0.275969
vt 0.675556 0.857364
vt 0.768889 0.857364
vt 0.675556 0.809302
vt 0.768889 0.809302
vt 0.897778 0.724031
vt 0.991111 0.724031
vt 0.897778 0.675969
vt 0.991111 0.675969
vt 0.675556 0.324031
vt 0.768889 0.324031
vt 0.675556 0.275969
vt 0.768889 0.275969
vt 0.231111 0.390698
vt 0.324444 0.390698
vt 0.231111 0.342636
vt 0.324444 0.342636
vt 0.453333 0.524031
vt 0.546667 0.524031
vt 0.453333 0.475969
vt 0.546667 0.475969
vt 0.342222 0.724031
vt 0.435556 0.724031
vt 0.342222 0.675969
vt 0.435556 0.675969
vt 0.342222 0.190698
vt 0.435556 0.190698
vt 0.342222 0.142636
vt 0.008889 0.190698
vt 0.102222 0.190698
vt 0.008889 0.142636
vt 0.786667 0.390698
vt 0.880000 0.390698
vt 0.786667 0.342636
vt 0.564444 0.857364
vt 0.657778 0.857364
vt 0.564444 0.809302
vt 0.546667 0.324031
vt 0.546667 0.275969
vt 0.453333 0.275969
vt 0.768889 0.724031
vt 0.768889 0.675969
vt 0.675556 0.675969
vt 0.880000 0.057364
vt 0.880000 0.009302
vt 0.786667 0.009302
vt 0.213333 0.924031
vt 0.213333 0.875969
vt 0.120000 0.875969
vt 0.120000 0.524031
vt 0.213333 0.524031
vt 0.120000 0.475969
vt 0.213333 0.475969
vt 0.008889 0.790698
vt 0.102222 0.790698
vt 0.008889 0.742636
vt 0.102222 0.742636
vt 0.120000 0.257364
vt 0.213333 0.257364
vt 0.120000 0.209302
vt 0.213333 0.209302
vt 0.231111 0.457364
vt 0.324444 0.457364
vt 0.231111 0.409302
vt 0.324444 0.409302
vt 0.008889 0.524031
vt 0.102222 0.524031
vt 0.008889 0.475969
vt 0.102222 0.475969
vt 0.453333 0.390698
vt 0.546667 0.390698
vt 0.453333 0.342636
vt 0.546667 0.342636
vt 0.786667 0.990698
vt 0.880000 0.990698
vt 0.786667 0.942636
vt 0.880000 0.942636
vt 0.453333 0.990698
vt 0.546667 0.990698
vt 0.453333 0.942636
vt 0.546667 0.942636
vt 0.675556 0.057364
vt 0.768889 0.057364
vt 0.675556 0.009302
vt 0.768889 0.009302
vt 0.231111 0.790698
vt 0.324444 0.790698
vt 0.231111 0.742636
vt 0.324444 0.742636
vt 0.675556 0.190698
vt 0.768889 0.190698
vt 0.675556 0.142636
vt 0.768889 0.142636
vt 0.342222 0.790698
vt 0.435556 0.790698
vt 0.342222 0.742636
vt 0.435556 0.742636
vt 0.231111 0.724031
vt 0.324444 0.724031
vt 0.231111 0.675969
vt 0.324444 0.675969
vt 0.564444 0.390698
vt 0.657778 0.390698
vt 0.564444 0.342636
vt 0.657778 0.342636
vt 0.120000 0.590698
vt 0.213333 0.590698
vt 0.120000 0.542636
vt 0.213333 0.542636
vt 0.564444 0.590698
vt 0.657778 0.590698
vt 0.564444 0.542636
vt 0.657778 0.542636
vt 0.231111 0.057364
vt 0.324444 0.057364
vt 0.231111 0.009302
vt 0.324444 0.009302
vt 0.342222 0.590698
vt 0.435556 0.590698
vt 0.342222 0.542636
vt 0.435556 0.542636
vt 0.786667 0.924031
vt 0.880000 0.924031
vt 0.786667 0.875969
vt 0.880000 0.875969
vt 0.453333 0.790698
vt 0.546667 0.790698
vt 0.453333 0.742636
vt 0.546667 0.742636
vt 0.231111 0.657364
vt 0.324444 0.657364
vt 0.231111 0.609302
vt 0.324444 0.609302
vt 0.897778 0.457364
vt 0.991111 0.457364
vt 0.897778 0.409302
vt 0.991111 0.409302
vt 0.564444 0.190698
vt 0.657778 0.190698
vt 0.564444 0.142636
vt 0.657778 0.142636
vt 0.120000 0.990698
vt 0.213333 0.990698
vt 0.120000 0.942636
vt 0.213333 0.942636
vt 0.786667 0.324031
vt 0.880000 0.324031
vt 0.786667 0.275969
vt 0.564444 0.524031
vt 0.657778 0.524031
vt 0.564444 0.475969
vt 0.897778 0.657364
vt 0.991111 0.657364
vt 0.897778 0.609302
vt 0.897778 0.790698
vt 0.991111 0.790698
vt 0.897778 0.742636
vt 0.213333 0.390698
vt 0.213333 0.342636
vt 0.120000 0.342636
vt 0.102222 0.057364
vt 0.102222 0.009302
vt 0.008889 0.009302
vt 0.213333 0.657364
vt 0.213333 0.609302
vt 0.120000 0.609302
vt 0.657778 0.724031
vt 0.657778 0.675969
vt 0.564444 0.675969
vt 0.786667 0.724031
vt 0.880000 0.724031
vt 0.786667 0.675969
vt 0.880000 0.675969
vt 0.453333 0.857364
vt 0.546667 0.857364
vt 0.453333 0.809302
vt 0.546667 0.809302
vt 0.120000 0.324031
vt 0.213333 0.324031
vt 0.120000 0.275969
vt 0.213333 0.275969
vt 0.120000 0.857364
vt 0.213333 0.857364
vt 0.120000 0.809302
vt 0.213333 0.809302
vt 0.008889 0.724031
vt 0.102222 0.724031
vt 0.008889 0.675969
vt 0.102222 0.675969
vt 0.120000 0.190698
vt 0.213333 0.190698
vt 0.120000 0.142636
vt 0.213333 0.142636
vt 0.008889 0.924031
vt 0.102222 0.924031
vt 0.008889 0.875969
vt 0.102222 0.875969
vt 0.897778 0.190698
vt 0.991111 0.190698
vt 0.897778 0.142636
vt 0.991111 0.142636
vt 0.231111 0.857364
vt 0.324444 0.857364
vt 0.231111 0.809302
vt 0.324444 0.809302
vt 0.564444 0.124031
vt 0.657778 0.124031
vt 0.564444 0.075969
vt 0.657778 0.075969
vt 0.786667 0.590698
vt 0.880000 0.590698
vt 0.786667 0.542636
vt 0.880000 0.542636
vt 0.231111 0.990698
vt 0.324444 0.990698
vt 0.231111 0.942636
vt 0.324444 0.942636
vt 0.786667 0.657364
vt 0.880000 0.657364
vt 0.786667 0.609302
vt 0.880000 0.609302
vt 0.120000 0.124031
vt 0.213333 0.124031
vt 0.120000 0.075969
vt 0.213333 0.075969
vt 0.008889 0.857364
vt 0.102222 0.857364
vt 0.008889 0.809302
vt 0.102222 0.809302
vt 0.453333 0.657364
vt 0.546667 0.657364
vt 0.453333 0.609302
vt 0.546667 0.609302
vt 0.008889 0.324031
vt 0.102222 0.324031
vt 0.008889 0.275969
vt 0.102222 0.275969
vt 0.231111 0.257364
vt 0.324444 0.257364
vt 0.231111 0.209302
vt 0.324444 0.209302
vt 0.120000 0.724031
vt 0.213333 0.724031
vt 0.120000 0.675969
vt 0.213333 0.675969
vt 0.008889 0.990698
vt 0.102222 0.990698
vt 0.008889 0.942636
vt 0.102222 0.942636
vt 0.675556 0.457364
vt 0.768889 0.457364
vt 0.675556 0.409302
vt 0.768889 0.409302
vt 0.120000 0.457364
vt 0.213333 0.457364
vt 0.120000 0.409302
vt 0.213333 0.409302
vt 0.786667 0.857364
vt 0.880000 0.857364
vt 0.786667 0.809302
vt 0.880000 0.809302
vt 0.342222 0.324031
vt 0.435556 0.324031
vt 0.342222 0.275969
vt 0.435556 0.275969
vt 0.897778 0.257364
vt 0.991111 0.257364
vt 0.897778 0.209302
vt 0.342222 0.057364
vt 0.435556 0.057364
vt 0.342222 0.009302
vt 0.342222 0.924031
vt 0.435556 0.924031
vt 0.342222 0.875969
vt 0.786667 0.190698
vt 0.880000 0.190698
vt 0.786667 0.142636
s 1
usemtl Material.104_links_house_grp.png
f 1/1/1 60/2/2 2/3/3
usemtl Material.103_links_house_grp.png
f 1/4/1 2/5/3 4/6/4
usemtl Material.102_links_house_grp.png
f 1/7/1 4/8/4 3/9/5
usemtl Material.101_links_house_grp.png
f 1/10/1 3/11/5 31/12/6
usemtl Material.100_links_house_grp.png
f 2/13/3 60/14/2 5/15/7
f 60/14/2 65/16/8 5/15/7
usemtl Material.099_links_house_grp.png
f 4/17/4 2/18/3 6/19/9
f 2/18/3 5/20/7 6/19/9
usemtl Material.098_links_house_grp.png
f 3/21/5 4/22/4 7/23/10
f 4/22/4 6/24/9 7/23/10
usemtl Material.097_links_house_grp.png
f 31/25/6 3/26/5 8/27/11
f 3/26/5 7/28/10 8/27/11
usemtl Material.096_links_house_grp.png
f 5/29/7 65/30/8 9/31/12
f 65/30/8 10/32/13 9/31/12
usemtl Material.095_links_house_grp.png
f 6/33/9 5/34/7 11/35/14
f 5/34/7 9/36/12 11/35/14
usemtl Material.094_links_house_grp.png
f 7/37/10 6/38/9 13/39/15
f 6/38/9 11/40/14 13/39/15
usemtl Material.093_links_house_grp.png
f 8/41/11 7/42/10 14/43/16
f 7/42/10 13/44/15 14/43/16
usemtl Material.092_links_house_grp.png
f 9/45/12 10/46/13 12/47/12
f 10/46/13 72/48/13 12/47/12
usemtl Material.091_links_house_grp.png
f 11/49/14 9/50/12 19/51/14
f 9/50/12 12/52/12 19/51/14
usemtl Material.043_links_house_grp.png
f 13/53/15 11/54/14 20/55/15
f 11/54/14 19/56/14 20/55/15
f 14/57/16 13/58/15 15/59/16
f 13/58/15 20/60/15 15/59/16
f 12/61/12 72/62/13 17/63/12
f 72/62/13 16/64/13 17/63/12
f 19/65/14 12/66/12 18/67/14
f 12/66/12 17/68/12 18/67/14
f 20/69/15 19/70/14 22/71/15
f 19/70/14 18/72/14 22/71/15
f 15/73/16 20/74/15 43/75/16
f 20/74/15 22/76/15 43/75/16
f 17/77/12 16/78/13 21/79/12
f 16/78/13 23/80/13 21/79/12
f 18/81/14 17/82/12 25/83/14
f 17/82/12 21/84/12 25/83/14
f 22/85/15 18/86/14 26/87/15
f 18/86/14 25/88/14 26/87/15
f 43/89/16 22/90/15 53/91/16
f 22/90/15 26/92/15 53/91/16
f 21/93/12 23/94/13 24/95/17
f 23/94/13 85/96/18 24/95/17
f 25/97/14 21/98/12 30/99/19
f 21/98/12 24/100/17 30/99/19
f 26/101/15 25/102/14 29/103/20
f 25/102/14 30/104/19 29/103/20
f 53/105/16 26/106/15 27/107/21
f 26/106/15 29/108/20 27/107/21
f 24/109/17 85/110/18 28/111/22
f 30/112/19 24/113/17 28/114/22
f 29/115/20 30/116/19 28/117/22
f 27/118/21 29/119/20 28/120/22
f 1/121/1 31/122/6 32/123/23
f 1/124/1 32/125/23 35/126/24
f 1/127/1 35/128/24 33/129/25
f 1/130/1 33/131/25 90/132/26
f 32/133/23 31/134/6 34/135/27
f 31/134/6 8/136/11 34/135/27
f 35/137/24 32/138/23 38/139/28
f 32/138/23 34/140/27 38/139/28
f 33/141/25 35/142/24 36/143/29
f 35/142/24 38/144/28 36/143/29
f 90/145/26 33/146/25 92/147/30
f 33/146/25 36/148/29 92/147/30
f 34/149/27 8/150/11 39/151/31
f 8/150/11 14/152/16 39/151/31
f 38/153/28 34/154/27 41/155/32
f 34/154/27 39/156/31 41/155/32
f 36/157/29 38/158/28 37/159/33
f 38/158/28 41/160/32 37/159/33
f 92/161/30 36/162/29 98/163/34
f 36/162/29 37/164/33 98/163/34
f 39/165/31 14/166/16 40/167/31
f 14/166/16 15/168/16 40/167/31
f 41/169/32 39/170/31 45/171/32
f 39/170/31 40/172/31 45/171/32
f 37/173/33 41/174/32 42/175/33
f 41/174/32 45/176/32 42/175/33
f 98/177/34 37/178/33 102/179/34
f 37/178/33 42/180/33 102/179/34
f 40/181/31 15/182/16 47/183/31
f 15/182/16 43/184/16 47/183/31
f 45/185/32 40/186/31 49/187/32
f 40/186/31 47/188/31 49/187/32
f 42/189/33 45/190/32 44/191/33
f 45/190/32 49/192/32 44/191/33
f 102/193/34 42/194/33 46/195/34
f 42/194/33 44/196/33 46/195/34
f 47/197/31 43/198/16 48/199/31
f 43/198/16 53/200/16 48/199/31
f 49/201/32 47/202/31 50/203/32
f 47/202/31 48/204/31 50/203/32
f 44/205/33 49/206/32 55/207/33
f 49/206/32 50/208/32 55/207/33
f 46/209/34 44/210/33 51/211/34
f 44/210/33 55/212/33 51/211/34
f 48/213/31 53/214/16 52/215/35
f 53/214/16 27/216/21 52/215/35
f 50/217/32 48/218/31 54/219/36
f 48/218/31 52/220/35 54/219/36
f 55/221/33 50/222/32 56/223/37
f 50/222/32 54/224/36 56/223/37
f 51/225/34 55/226/33 113/227/38
f 55/226/33 56/228/37 113/227/38
f 52/229/35 27/230/21 28/231/22
f 54/232/36 52/233/35 28/234/22
f 56/235/37 54/236/36 28/237/22
f 113/238/38 56/239/37 28/240/22
f 1/241/1 89/242/39 57/243/40
f 1/244/1 57/245/40 59/246/41
f 1/247/1 59/248/41 58/249/42
f 1/250/1 58/251/42 60/252/2
f 57/253/40 89/254/39 62/255/43
f 89/254/39 97/256/44 62/255/43
f 59/257/41 57/258/40 61/259/45
f 57/258/40 62/260/43 61/259/45
f 58/261/42 59/262/41 66/263/46
f 59/262/41 61/264/45 66/263/46
f 60/265/2 58/266/42 65/267/8
f 58/266/42 66/268/46 65/267/8
f 62/269/43 97/270/44 63/271/47
f 97/270/44 67/272/48 63/271/47
f 61/273/45 62/274/43 64/275/49
f 62/274/43 63/276/47 64/275/49
f 66/277/46 61/278/45 71/279/50
f 61/278/45 64/280/49 71/279/50
f 65/281/8 66/282/46 10/283/13
f 66/282/46 71/284/50 10/283/13
f 63/285/47 67/286/48 69/287/47
f 67/286/48 68/288/48 69/287/47
f 64/289/49 63/290/47 70/291/49
f 63/290/47 69/292/47 70/291/49
f 71/293/50 64/294/49 76/295/50
f 64/294/49 70/296/49 76/295/50
f 10/297/13 71/298/50 72/299/13
f 71/298/50 76/300/50 72/299/13
f 69/301/47 68/302/48 73/303/47
f 68/302/48 77/304/48 73/303/47
f 70/305/49 69/306/47 74/307/49
f 69/306/47 73/308/47 74/307/49
f 76/309/50 70/310/49 75/311/50
f 70/310/49 74/312/49 75/311/50
f 72/313/13 76/314/50 16/315/13
f 76/314/50 75/316/50 16/315/13
f 73/317/47 77/318/48 82/319/47
f 77/318/48 79/320/48 82/319/47
f 74/321/49 73/322/47 81/323/49
f 73/322/47 82/324/47 81/323/49
f 75/325/50 74/326/49 78/327/50
f 74/326/49 81/328/49 78/327/50
f 16/329/13 75/330/50 23/331/13
f 75/330/50 78/332/50 23/331/13
f 82/333/47 79/334/48 80/335/51
f 79/334/48 112/336/52 80/335/51
f 81/337/49 82/338/47 83/339/53
f 82/338/47 80/340/51 83/339/53
f 78/341/50 81/342/49 84/343/54
f 81/342/49 83/344/53 84/343/54
f 23/345/13 78/346/50 85/347/18
f 78/346/50 84/348/54 85/347/18
f 80/349/51 112/350/52 28/351/22
f 83/352/53 80/353/51 28/354/22
f 84/355/54 83/356/53 28/357/22
f 85/358/18 84/359/54 28/360/22
f 1/361/1 90/362/26 87/363/55
f 1/364/1 87/365/55 86/366/56
f 1/367/1 86/368/56 88/369/57
f 1/370/1 88/371/57 89/372/39
f 87/373/55 90/374/26 93/375/58
f 90/374/26 92/376/30 93/375/58
f 86/377/56 87/378/55 96/379/59
f 87/378/55 93/380/58 96/379/59
f 88/381/57 86/382/56 91/383/60
f 86/382/56 96/384/59 91/383/60
f 89/385/39 88/386/57 97/387/44
f 88/386/57 91/388/60 97/387/44
f 93/389/58 92/390/30 94/391/61
f 92/390/30 98/392/34 94/391/61
f 96/393/59 93/394/58 100/395/62
f 93/394/58 94/396/61 100/395/62
f 91/397/60 96/398/59 95/399/63
f 96/398/59 100/400/62 95/399/63
f 97/401/44 91/402/60 67/403/48
f 91/402/60 95/404/63 67/403/48
f 94/405/61 98/406/34 99/407/61
f 98/406/34 102/408/34 99/407/61
f 100/409/62 94/410/61 101/411/62
f 94/410/61 99/412/61 101/411/62
f 95/413/63 100/414/62 104/415/63
f 100/414/62 101/416/62 104/415/63
f 67/417/48 95/418/63 68/419/48
f 95/418/63 104/420/63 68/419/48
f 99/421/61 102/422/34 103/423/61
f 102/422/34 46/424/34 103/423/61
f 101/425/62 99/426/61 107/427/62
f 99/426/61 103/428/61 107/427/62
f 104/429/63 101/430/62 105/431/63
f 101/430/62 107/432/62 105/431/63
f 68/433/48 104/434/63 77/435/48
f 104/434/63 105/436/63 77/435/48
f 103/437/61 46/438/34 106/439/61
f 46/438/34 51/440/34 106/439/61
f 107/441/62 103/442/61 108/443/62
f 103/442/61 106/444/61 108/443/62
f 105/445/63 107/446/62 111/447/63
f 107/446/62 108/448/62 111/447/63
f 77/449/48 105/450/63 79/451/48
f 105/450/63 111/452/63 79/451/48
f 106/453/61 51/454/34 109/455/64
f 51/454/34 113/456/38 109/455/64
f 108/457/62 106/458/61 110/459/65
f 106/458/61 109/460/64 110/459/65
f 111/461/63 108/462/62 114/463/66
f 108/462/62 110/464/65 114/463/66
f 79/465/48 111/466/63 112/467/52
f 111/466/63 114/468/66 112/467/52
f 109/469/64 113/470/38 28/471/22
f 110/472/65 109/473/64 28/474/22
f 114/475/66 110/476/65 28/477/22
f 112/478/52 114/479/66 28/480/22
